:SAMPLES-PER-SECOND 30
:FULLY-SPECIFIED
:DEGREES
214
root  12.3327 37.2339 -44.9506 45.3067 -73.4302 -35.1429
RightUpLeg  -25.0609 16.348 -1.4537
RightLeg  41.6317 -9.26382 -8.98828
RightFoot  -10.3336 -0.216982 18.8721
RightToes  1.16414e-010 0 -3.6325e-017
Spine  40.3563 -5.9855 -19.5903
Spine1  9.70355 -8.03263 -21.2789
HEad  -42.6075 16.0375 -25.281
LeftShoulder1  0.684014 -4.14575 -0.611528
LeftArm  -83.096 -72.7446 -6.47387
LeftForeArm  -51.0797 -51.2531 -16.7034
LeftHand  -0.219374 1.08288 8.28929
RightShoulder  1.88248 3.83705 19.2152
RightArm  56.2547 -33.9619 65.2898
RightForeArm  41.8641 34.1497 5.21064
RightHand  0.72455 -8.81239 -23.5226
LeftUpLeg  -45.6618 10.8266 1.5211
LeftLeg  28.3083 13.1895 7.93612
LeftFoot  -6.13695 0.165412 -2.855
LeftToes  7.09373e-011 9.9627e-011 8.96859e-012
215
root  12.4066 37.1333 -43.5187 62.7297 -75.3587 -52.0586
RightUpLeg  -29.1308 14.6645 -0.320324
RightLeg  46.7736 -12.2967 -14.0181
RightFoot  -6.30873 -0.654514 13.5849
RightToes  1.16414e-010 0 -3.6325e-017
Spine  41.147 -6.22521 -19.9125
Spine1  5.93151 -8.52574 -22.7453
HEad  -43.3618 19.6903 -27.1993
LeftShoulder1  0.289217 -0.909332 2.03896
LeftArm  -97.1987 -64.9895 7.01269
LeftForeArm  -52.7842 -48.3493 -15.1841
LeftHand  -0.255533 0.8485 6.48601
RightShoulder  2.09366 4.50507 19.7625
RightArm  51.2283 -37.3979 64.7328
RightForeArm  50.1391 37.3823 5.61051
RightHand  -0.127524 -4.70613 -13.0408
LeftUpLeg  -46.6369 13.8784 1.17729
LeftLeg  28.7555 13.8628 8.45775
LeftFoot  -2.91719 -0.0707141 1.1657
LeftToes  7.09373e-011 9.9627e-011 8.96859e-012
216
root  12.4124 36.891 -42.0146 75.8735 -76.445 -65.9102
RightUpLeg  -31.8195 9.34924 2.3381
RightLeg  55.1099 -14.0784 -20.9619
RightFoot  -6.48503 -0.421232 8.75461
RightToes  1.16414e-010 0 -3.6325e-017
Spine  41.3421 -6.4231 -19.925
Spine1  4.0014 -8.85647 -23.337
HEad  -43.5559 23.7955 -29.0726
LeftShoulder1  0.103164 1.66096 3.19941
LeftArm  -100.193 -56.3772 9.51374
LeftForeArm  -52.1316 -45.2896 -13.7626
LeftHand  -0.441585 -1.85161 7.30519
RightShoulder  2.20754 5.03535 19.4392
RightArm  48.7458 -40.6642 63.1895
RightForeArm  54.9296 43.0165 6.91059
RightHand  -0.0131082 -3.78497 1.46232
LeftUpLeg  -47.0821 16.7827 -0.847561
LeftLeg  30.9452 13.9025 9.1942
LeftFoot  -1.34893 -0.532773 6.25822
LeftToes  7.09373e-011 9.9627e-011 8.96859e-012
217
root  12.2692 36.5573 -40.4842 81.233 -78.363 -72.7236
RightUpLeg  -33.4237 1.59651 4.87659
RightLeg  64.5783 -10.9027 -23.8149
RightFoot  -8.31726 -0.30546 9.56806
RightToes  1.16414e-010 0 -3.6325e-017
Spine  40.9194 -6.62029 -19.8326
Spine1  3.69765 -8.8988 -24.1758
HEad  -43.4074 27.3745 -29.3023
LeftShoulder1  0.0048226 3.39511 4.19721
LeftArm  -101.584 -49.5773 9.74225
LeftForeArm  -56.5751 -40.8532 -12.0624
LeftHand  -0.221489 0.0169967 4.39792
RightShoulder  2.25414 5.25164 19.3219
RightArm  47.8562 -43.1172 62.7388
RightForeArm  57.0675 46.8924 8.01279
RightHand  0.0584494 -4.30374 8.1821
LeftUpLeg  -46.6403 18.7065 -5.14515
LeftLeg  33.4528 13.7072 9.93041
LeftFoot  -2.18045 -0.811325 10.3029
LeftToes  7.09373e-011 9.9627e-011 8.96859e-012
218
root  12.0264 36.1484 -38.9254 88.0282 -80.804 -80.3274
RightUpLeg  -35.0623 -6.00749 7.67177
RightLeg  72.3156 -5.23321 -18.591
RightFoot  -8.74392 -0.40746 15.1547
RightToes  1.16414e-010 0 -3.6325e-017
Spine  39.5072 -6.5185 -19.3334
Spine1  3.3117 -8.03572 -25.373
HEad  -43.0688 29.644 -28.1993
LeftShoulder1  -0.032667 4.26599 4.8631
LeftArm  -102.739 -45.1267 9.14109
LeftForeArm  -61.2441 -35.8619 -10.4136
LeftHand  -0.000940231 2.66195 -0.0242358
RightShoulder  2.30105 5.27051 19.8408
RightArm  46.5945 -44.6733 63.852
RightForeArm  58.578 47.7657 8.24109
RightHand  0.0697877 -3.80155 7.02532
LeftUpLeg  -46.7303 19.6284 -10.0024
LeftLeg  36.1505 14.2465 11.3042
LeftFoot  -4.72599 -0.658493 11.8072
LeftToes  7.09373e-011 9.9627e-011 8.96859e-012
219
root  11.8049 35.7264 -37.2992 105.6 -82.7038 -98.3888
RightUpLeg  -36.0246 -11.9536 11.7432
RightLeg  77.5519 -1.13969 -7.62784
RightFoot  -8.4504 -0.58134 20.9232
RightToes  1.16414e-010 0 -3.6325e-017
Spine  37.8103 -5.45805 -18.9111
Spine1  2.19604 -6.21003 -25.7993
HEad  -42.4352 30.4129 -26.7232
LeftShoulder1  -0.0397471 4.38891 4.50893
LeftArm  -103.293 -41.7484 8.14364
LeftForeArm  -61.331 -31.8423 -9.22149
LeftHand  0.024876 1.60691 -1.09681
RightShoulder  2.31148 5.16601 20.31
RightArm  45.9593 -44.8255 65.2487
RightForeArm  58.2553 46.6604 7.88431
RightHand  0.107654 -3.08569 6.43839
LeftUpLeg  -47.5527 20.7011 -14.6332
LeftLeg  39.1956 15.2292 13.319
LeftFoot  -6.68908 -0.468544 12.46
LeftToes  7.09373e-011 9.9627e-011 8.96859e-012
220
root  11.6712 35.3121 -35.6027 131.058 -83.3617 -124.313
RightUpLeg  -36.038 -17.409 16.689
RightLeg  79.4111 1.07592 4.78163
RightFoot  -6.84317 -1.18873 27.587
RightToes  1.16414e-010 0 -3.6325e-017
Spine  36.0658 -4.11587 -18.5939
Spine1  0.846468 -4.27904 -25.4757
HEad  -41.6355 30.0822 -24.4514
LeftShoulder1  -0.0458121 4.36212 3.58436
LeftArm  -103.911 -38.9467 7.65046
LeftForeArm  -60.8251 -28.5173 -8.38945
LeftHand  0.00602787 1.27729 -0.364801
RightShoulder  2.28063 5.04596 20.3255
RightArm  46.6442 -43.4205 66.1238
RightForeArm  55.3681 44.2806 7.27257
RightHand  0.120792 -2.78613 6.24081
LeftUpLeg  -48.9867 21.9141 -19.4839
LeftLeg  42.1473 15.773 15.1568
LeftFoot  -6.20618 -0.570805 13.4545
LeftToes  7.09373e-011 9.9627e-011 8.96859e-012
221
root  11.5849 34.9731 -33.8263 154.225 -83.4843 -147.938
RightUpLeg  -35.1915 -23.2679 20.7746
RightLeg  76.3884 2.8794 12.5487
RightFoot  -1.603 -3.29914 37.0689
RightToes  1.16414e-010 0 -3.6325e-017
Spine  34.4175 -3.38102 -18.024
Spine1  -0.582877 -3.01666 -25.5683
HEad  -40.972 29.2475 -20.6324
LeftShoulder1  -0.0657731 4.64804 3.08905
LeftArm  -104.288 -37.1466 7.79765
LeftForeArm  -61.8106 -24.8852 -7.01078
LeftHand  0.0190548 2.04861 -1.10375
RightShoulder  2.27543 5.03624 20.2927
RightArm  47.8068 -41.1863 66.2549
RightForeArm  51.7915 40.9849 6.48214
RightHand  0.0869297 -2.66024 4.4549
LeftUpLeg  -50.0836 22.4842 -24.7597
LeftLeg  43.8624 15.7729 16.0348
LeftFoot  -3.9067 -0.85126 13.4361
LeftToes  7.09373e-011 9.9627e-011 8.96859e-012
222
root  11.5172 34.8669 -32.0443 169.445 -83.0262 -163.627
RightUpLeg  -32.8538 -27.4757 23.4502
RightLeg  68.3598 4.93249 12.8977
RightFoot  3.55396 -5.35604 40.1724
RightToes  1.16414e-010 0 -3.6325e-017
Spine  33.0335 -3.00659 -16.626
Spine1  -2.09345 -2.32807 -25.9681
HEad  -40.5069 28.3855 -16.0415
LeftShoulder1  -0.0941348 5.11758 3.0035
LeftArm  -99.4452 -36.083 7.94329
LeftForeArm  -67.5424 -21.525 -3.03877
LeftHand  0.0710172 1.75842 -2.57035
RightShoulder  2.29212 5.10775 20.2632
RightArm  49.3094 -38.7888 65.2111
RightForeArm  49.2182 37.2847 5.61446
RightHand  0.0470107 -2.69699 2.69516
LeftUpLeg  -50.4328 23.1259 -29.1296
LeftLeg  44.0289 15.2796 15.6731
LeftFoot  -1.06625 -1.08365 11.9973
LeftToes  7.09373e-011 9.9627e-011 8.96859e-012
